<svg xmlns="http://www.w3.org/2000/svg" viewBox="0 0 161.35 171.78"><defs><style>.cls-1{fill:#fff;opacity:0.95;}</style></defs><g id="Lager_2" data-name="Lager 2"><g id="Lager_1-2" data-name="Lager 1"><path class="cls-1" d="M158.81,109.58a31.44,31.44,0,0,1,0-47.58,7.43,7.43,0,0,0,1.55-9.34L154.79,43l-5.72-10a7.44,7.44,0,0,0-8.87-3.35,31,31,0,0,1-10.09,1.69A31.57,31.57,0,0,1,99.27,6,7.45,7.45,0,0,0,92,0H69.46a7.45,7.45,0,0,0-7.32,6A31.57,31.57,0,0,1,31.3,31.37a31.08,31.08,0,0,1-10.16-1.7A7.44,7.44,0,0,0,12.28,33L1,52.63A7.43,7.43,0,0,0,2.56,62,31.34,31.34,0,0,1,13.49,85.79,31.34,31.34,0,0,1,2.56,109.61,7.43,7.43,0,0,0,1,119l11.29,19.64A7.45,7.45,0,0,0,21.11,142,31.73,31.73,0,0,1,31.3,140.3a31.39,31.39,0,0,1,30.86,25.49,7.42,7.42,0,0,0,7.3,6H91.94a7.42,7.42,0,0,0,7.31-6,31.5,31.5,0,0,1,41-23.84,7.44,7.44,0,0,0,8.82-3.36l11.31-19.68A7.44,7.44,0,0,0,158.81,109.58Zm-30.45-3.4c-2.07,9.5-7.93,13.5-15.93,12.07a13.48,13.48,0,0,1-7.25-3.81,59.13,59.13,0,0,0-10.61-8.69q-14-8.52-27.93,0a61.62,61.62,0,0,0-10.31,8.41c-7.56,7.3-17.34,5.59-21.91-3.82-2.5-5.15-2.79-10.7-2.9-16.41,0-13.75,4.59-25.66,14.8-35.31,4.21-4,9.07-5.12,14.6-4.22a13.66,13.66,0,0,1,3.23.81c11,4.84,21.95,4.49,33.15.05,7.61-3,14.27-.71,19.86,5.46C129.1,74,132,89.35,128.36,106.18Z"/></g></g></svg>